<svg width="24" height="24" viewBox="0 0 24 24" fill="none" xmlns="http://www.w3.org/2000/svg">
<path d="M7.66665 7.44799C7.66665 6.52133 6.61532 5.78599 5.33332 5.99999C3.45132 6.31333 2.59132 10.004 2.66665 10.6667C2.71999 11.1353 3.81665 11.8147 5.10399 11.3333C5.94465 11.0187 6.41065 10.3667 6.66665 9.66666" stroke="black" stroke-width="1.33333" stroke-linecap="round" stroke-linejoin="round"/>
<path d="M10.5117 7.44799C10.5117 6.52133 11.5631 5.78599 12.8451 5.99999C14.7271 6.31333 15.5871 10.004 15.5117 10.6667C15.4584 11.1353 14.3617 11.8147 13.0744 11.3333C12.2337 11.0187 11.8377 10.3667 11.5817 9.66666" stroke="black" stroke-width="1.33333" stroke-linecap="round" stroke-linejoin="round"/>
<path d="M6.33301 13.3334V13.6667" stroke="black" stroke-width="1.33333" stroke-linecap="round" stroke-linejoin="round"/>
<path d="M11.667 13.3334V13.6667" stroke="black" stroke-width="1.33333" stroke-linecap="round" stroke-linejoin="round"/>
<path d="M8.5 14.8334H9.5L9 15.3334L8.5 14.8334Z" stroke="black" stroke-width="1.33333" stroke-linecap="round" stroke-linejoin="round"/>
<path d="M3.94651 11.498C3.75993 12.2184 3.66584 12.9597 3.66651 13.704C3.66651 16.4853 6.05451 18 8.99984 18C11.9452 18 14.3332 16.4853 14.3332 13.704C14.3332 12.9966 14.2252 12.2373 14.0045 11.498M7.84251 7.44331C8.22369 7.36842 8.61137 7.33157 8.99984 7.33331C9.51984 7.33331 9.99984 7.40531 10.4405 7.53731" stroke="black" stroke-width="1.33333" stroke-linecap="round" stroke-linejoin="round"/>
<path d="M19.5 10V14" stroke="black" stroke-width="2" stroke-linecap="round" stroke-linejoin="round"/>
<path d="M21.5 12H17.5" stroke="black" stroke-width="2" stroke-linecap="round" stroke-linejoin="round"/>
</svg>
